# xmcd
#
# Track frame offsets: 
#        150
#        29560
#        51669
#        72835
#        97835
#        116810
#        155730
#        177717
#        198766
#        222146
#        241375
#
# Disc length: 3493 seconds
#
# Revision: 1
# Processed by: cddbd v1.5.2PL0 Copyright (c) Steve Scherf et al.
# Submitted via: ExactAudioCopy v0.99pb5
#
DISCID=a30da30b
DTITLE=AFRICANDO - KETUKUBA
DYEAR=2006
DGENRE=Salsa
TTITLE0=Bogne Sirala
TTITLE1=Malawoo
TTITLE2=Coumba PeuL
TTITLE3=Ketukuba
TTITLE4=Dieguema
TTITLE5=Mario
TTITLE6=Viens Danser (Sur Le Son Africando)
TTITLE7=FataLikoy
TTITLE8=Sagoo
TTITLE9=Ker
TTITLE10=Nina Nina
EXTD=YEAR: 2006
EXTT0=
EXTT1=
EXTT2=
EXTT3=
EXTT4=
EXTT5=
EXTT6=
EXTT7=
EXTT8=
EXTT9=
EXTT10=
PLAYORDER=
